<?xml version="1.0" encoding="UTF-8"?>
<!DOCTYPE svg PUBLIC "-//W3C//DTD SVG 1.1//EN" "http://www.w3.org/Graphics/SVG/1.1/DTD/svg11.dtd">
<!-- Creator: CorelDRAW X5 -->
<svg xmlns="http://www.w3.org/2000/svg" xml:space="preserve" width="86.1906mm" height="83.82mm" style="shape-rendering:geometricPrecision; text-rendering:geometricPrecision; image-rendering:optimizeQuality; fill-rule:evenodd; clip-rule:evenodd"
viewBox="0 0 8619 8382"
 xmlns:xlink="http://www.w3.org/1999/xlink"
 xmlns:svg="http://www.w3.org/2000/svg">
 <defs>
  <style type="text/css">
   <![CDATA[
    .fil0 {fill:#1C77B1}
   ]]>
  </style>
 </defs>
 <g id="Layer_x0020_1">
  <metadata id="CorelCorpID_0Corel-Layer"/>
 </g>
 <g id="svg2">
  <metadata id="CorelCorpID_1Corel-Layer"/>
  <path class="fil0" d="M8429 6768c-89,0 -161,-72 -161,-161 0,-87 72,-160 161,-159 89,0 161,72 161,160 0,88 -72,160 -161,160l0 0zm-2061 1281c-239,-3 -434,-195 -434,-434 0,-236 195,-429 434,-431 239,0 434,195 434,431 0,239 -195,434 -434,434l0 0zm434 -1156l3 138 0 0c-68,-70 -101,-94 -177,-125 -73,-26 -166,-47 -260,-49 -5,0 -10,0 -16,0 -112,0 -210,18 -299,52 -88,36 -169,96 -239,172 -68,68 -120,151 -156,244 -34,88 -55,184 -55,286 0,218 75,403 221,548 140,143 325,218 543,218 91,0 187,-23 262,-54 78,-29 138,-52 174,-104l0 133 338 -3 -5 -1455 -335 0 0 0zm-2112 1160c-3,0 -3,0 -3,0 -239,0 -432,-193 -432,-432 0,-237 193,-432 432,-432 0,0 0,0 3,0 237,0 432,195 432,432 0,239 -195,432 -432,432l0 0zm435 -1018c-68,-73 -99,-96 -177,-125 -70,-26 -167,-49 -260,-52 -5,0 -10,0 -16,0 -112,0 -211,18 -299,55 -86,36 -167,94 -240,172 -65,68 -117,151 -156,242 -34,91 -52,185 -52,286 0,221 73,406 219,549 143,146 325,221 544,221 0,0 0,0 3,0 88,0 185,-26 263,-55 78,-29 135,-52 172,-104l0 133 338 -3 -2 -1971 -336 3 0 649zm-2670 1018c-3,0 -3,0 -3,0 -239,0 -432,-193 -432,-432 0,-237 193,-432 432,-432 0,0 0,0 3,0 237,0 432,195 432,432 0,239 -195,432 -432,432l0 0zm435 -1018c-68,-73 -99,-96 -177,-125 -70,-26 -167,-49 -260,-52 -5,0 -10,0 -16,0 -112,0 -211,18 -299,55 -86,36 -167,94 -240,172 -65,68 -117,151 -156,242 -34,91 -52,185 -52,286 0,221 73,406 219,549 143,146 325,221 544,221 0,0 0,0 3,0 88,0 185,-26 263,-55 78,-29 135,-52 172,-104l0 133 338 -3 -2 -1971 -336 3 0 649zm-2125 1010c-3,0 -3,0 -3,0 -239,0 -432,-193 -432,-432 0,-237 193,-432 432,-432 0,0 0,0 3,0 237,0 432,195 432,432 0,239 -195,432 -432,432l0 0zm435 -1156l0 138c-68,-73 -99,-96 -177,-125 -70,-26 -167,-49 -260,-52 -5,0 -10,0 -16,0 -112,0 -211,18 -299,55 -86,36 -167,94 -240,172 -65,68 -117,151 -156,242 -34,91 -52,185 -52,286 0,221 73,406 219,549 143,146 325,221 544,221 0,0 0,0 3,0 88,0 185,-26 263,-55 78,-29 135,-52 172,-104l0 133 338 -3 -3 -1460 -336 3 0 0zm2228 -145l361 0 0 -359 -361 0 0 359zm0 1610l359 0 0 -1478 -359 0 0 1478zm4665 -915c-214,-34 -405,-45 -405,-160 0,-44 26,-91 68,-123 37,-29 133,-39 199,-39 68,0 136,34 178,78 26,31 58,81 63,133l348 0 0 0c-8,-128 -63,-254 -162,-324 -97,-71 -222,-157 -395,-157 -165,0 -327,5 -439,89 -113,81 -193,217 -193,334 0,68 -5,149 21,199 29,50 112,152 178,191 91,52 306,73 423,105 97,23 214,29 240,125 16,58 -3,110 -55,144 -50,34 -125,57 -209,57 -86,0 -170,-26 -212,-78 -37,-50 -58,-97 -86,-172l-348 0 0 0c8,159 97,316 206,405 107,86 251,128 434,128 183,0 342,-31 460,-115 115,-84 178,-240 178,-369 0,-110 -31,-196 -81,-264 -102,-133 -285,-170 -410,-188l0 0zm336 -848c-2,0 -6,0 -9,0l-30 0 0 -51 31 0 0 0c4,0 6,0 8,0 12,0 20,0 23,1 6,0 12,4 15,7 5,4 6,9 6,15 0,6 -1,13 -5,17 -4,2 -7,6 -11,8 -5,1 -14,1 -28,2l0 0zm54 45c-6,-6 -13,-12 -22,-18 18,-2 32,-9 40,-20 8,-8 14,-21 14,-36 0,-12 -5,-24 -10,-33 -6,-8 -15,-15 -24,-19 -9,-4 -25,-5 -47,-5l-86 0 0 202 41 0 0 -85 7 0 0 0c9,0 17,1 21,2 5,1 7,4 11,7 0,1 1,1 1,2 5,2 12,13 23,28l0 0 30 45 49 0 -25 -39 0 0c-9,-15 -18,-28 -22,-33l0 0zm-54 -223c-1,0 -2,-1 -2,-1 -106,0 -193,87 -193,193 0,106 87,192 193,192 0,0 1,0 2,0 105,-1 191,-87 191,-192 0,-105 -86,-191 -191,-192l0 0z"/>
  <path class="fil0" d="M14 1673c0,654 161,1301 459,1889l2523 0c-659,-987 -1718,-1730 -2981,-1889zm657 2241c68,109 141,215 219,318l6838 0c78,-103 151,-209 219,-318l-2536 0c-52,95 -100,192 -144,291 26,-94 49,-191 70,-291l-2055 0c21,100 44,197 70,291 -44,-99 -93,-196 -144,-291l-2536 0zm514 670c97,104 199,205 306,300l2102 0 -7 -26 12 26 1424 0 12 -26 -7 26 2102 0c107,-96 210,-196 306,-300l-6249 0zm731 635c518,360 1127,621 1806,743 5,-249 -14,-498 -57,-743l-1749 0zm1850 0c218,392 438,650 544,743 106,-94 326,-351 544,-743l-1087 0zm1188 0c-43,246 -62,495 -57,743 680,-122 1288,-383 1806,-743l-1749 0zm3192 -1657c297,-588 459,-1235 459,-1889 -1263,159 -2322,902 -2981,1889l2523 0zm-2750 0c24,-186 37,-380 37,-582 0,-1647 -876,-2763 -1123,-2982 -247,220 -1123,1335 -1123,2982 0,202 13,397 37,582l2173 0z"/>
 </g>
</svg>
