<?xml version="1.0" encoding="utf-8"?>
<!-- Generator: Adobe Illustrator 24.1.0, SVG Export Plug-In . SVG Version: 6.00 Build 0)  -->
<svg version="1.1" id="Layer_1" xmlns="http://www.w3.org/2000/svg" xmlns:xlink="http://www.w3.org/1999/xlink" x="0px" y="0px"
	 viewBox="0 0 113.39 56.69" style="enable-background:new 0 0 113.39 56.69;" xml:space="preserve">
<style type="text/css">
	.st0{fill:#020203;}
</style>
<g id="RKfvOE.tif">
	<g>
		<g>
			<path class="st0" d="M32.5,40.39c0.03-0.26,0.04-0.54,0.1-0.79c0.37-1.63,1.36-2.73,2.96-3.21c1.26-0.38,2.48-0.2,3.6,0.53
				c0.01,0,0.01,0.01,0.04,0.02c0-0.11,0-0.21,0-0.31c0-0.1,0-0.2,0-0.31c0.69,0,1.37,0,2.06,0c0,2.72,0,5.44,0,8.18
				c-0.68,0-1.36,0-2.05,0c0-0.16,0-0.32,0-0.49c-0.1,0.06-0.18,0.12-0.27,0.17c-0.48,0.28-1.01,0.42-1.56,0.48
				c-0.91,0.11-1.78-0.01-2.58-0.46c-1.28-0.71-2.04-1.8-2.25-3.25c-0.02-0.16-0.03-0.33-0.05-0.49
				C32.5,40.42,32.5,40.41,32.5,40.39z M34.47,40.42c0,1.27,1.09,2.36,2.36,2.36c1.32,0,2.36-1.04,2.37-2.35
				c0.01-1.3-1.06-2.38-2.36-2.38C35.59,38.06,34.47,39.18,34.47,40.42z"/>
			<path class="st0" d="M54.34,16.17c2.37-1.39,4.73-2.78,7.1-4.17c4.12,7.13,8.23,14.26,12.35,21.4c-0.06,0-0.1,0.01-0.14,0.01
				c-3.1,0-6.2,0-9.3,0c-0.09,0-0.14-0.03-0.19-0.11c-3.25-5.68-6.51-11.35-9.76-17.03C54.38,16.24,54.36,16.21,54.34,16.17z"/>
			<path class="st0" d="M61.23,33.4c-2.52,0-5.01,0-7.51,0c0,0.68,0,1.35,0,2.03c-0.69,0-1.36,0-2.06,0c0-0.04,0-0.08,0-0.13
				c0-0.59,0-1.18,0-1.78c0-0.08-0.02-0.16-0.06-0.23c-1.81-3.18-3.62-6.36-5.42-9.54c-0.02-0.04-0.04-0.08-0.07-0.13
				c2.4-1.36,4.8-2.71,7.2-4.07C55.95,24.17,58.58,28.77,61.23,33.4z"/>
			<path class="st0" d="M48.67,36.93c0-1.15,0-2.29,0-3.44c0.69,0,1.36,0,2.05,0c0,3.66,0,7.33,0,11c-0.68,0-1.36,0-2.05,0
				c0-0.16,0-0.32,0-0.49c-0.13,0.07-0.24,0.14-0.35,0.19c-1.6,0.74-3.16,0.71-4.62-0.33c-0.99-0.7-1.54-1.7-1.68-2.9
				c-0.14-1.19,0.14-2.27,0.9-3.21c0.74-0.91,1.71-1.41,2.88-1.52c1.02-0.09,1.97,0.11,2.83,0.68
				C48.63,36.92,48.65,36.92,48.67,36.93z M43.94,40.43c0,1.31,1.05,2.35,2.36,2.35c1.27,0,2.37-1.1,2.37-2.37
				c0-1.24-1.13-2.36-2.37-2.35C45.01,38.06,43.94,39.13,43.94,40.43z"/>
			<path class="st0" d="M61.23,44.49c0-0.16,0-0.32,0-0.48c-0.03,0.01-0.05,0.01-0.06,0.02c-0.59,0.42-1.25,0.6-1.96,0.64
				c-1.53,0.09-2.8-0.45-3.76-1.65c-1.6-2-1.02-4.99,1.22-6.23c1.24-0.69,2.53-0.78,3.85-0.27c0.25,0.1,0.47,0.25,0.71,0.38
				c0-1.13,0-2.28,0-3.43c0.69,0,1.37,0,2.05,0c0,3.67,0,7.33,0,11.01C62.6,44.49,61.92,44.49,61.23,44.49z M58.87,42.78
				c1.32,0,2.37-1.05,2.36-2.37c0-1.28-1.08-2.35-2.36-2.36c-1.25,0-2.38,1.13-2.37,2.37C56.5,41.69,57.6,42.78,58.87,42.78z"/>
			<path class="st0" d="M72.64,44.49c-0.65,0-1.29,0-1.95,0c0-0.16,0-0.32,0-0.48c-0.24,0.12-0.46,0.25-0.7,0.34
				c-1.59,0.58-3.09,0.46-4.44-0.62c-0.91-0.73-1.41-1.7-1.52-2.86c-0.12-1.22,0.21-2.32,1.02-3.24c0.73-0.83,1.66-1.29,2.77-1.39
				c1.03-0.09,1.98,0.11,2.87,0.71c0-0.22,0-0.42,0-0.63c0.66,0,1.31,0,1.96,0C72.64,39.03,72.64,41.76,72.64,44.49z M70.68,40.44
				c0.01-1.24-1.1-2.37-2.35-2.38c-1.28-0.01-2.37,1.05-2.38,2.32c-0.02,1.32,1.02,2.39,2.33,2.4
				C69.57,42.79,70.67,41.72,70.68,40.44z"/>
			<path class="st0" d="M37.77,30.99c2.37-1.37,4.73-2.74,7.1-4.12c1.27,2.18,2.53,4.35,3.81,6.53c-0.06,0-0.1,0.01-0.13,0.01
				c-3.1,0-6.21,0-9.31,0c-0.09,0-0.14-0.03-0.19-0.11c-0.4-0.73-0.81-1.46-1.21-2.19C37.81,31.07,37.79,31.03,37.77,30.99z"/>
			<path class="st0" d="M73.48,41.85c0.72,0,1.43,0,2.14,0c0.01,0.1,0.02,0.19,0.04,0.28c0.07,0.34,0.24,0.61,0.54,0.77
				c0.66,0.35,1.34,0.41,2.01,0.04c0.15-0.08,0.28-0.22,0.38-0.36c0.21-0.29,0.15-0.62-0.16-0.81c-0.17-0.1-0.36-0.18-0.56-0.23
				c-0.51-0.11-1.02-0.17-1.53-0.28c-0.45-0.1-0.89-0.21-1.32-0.36c-0.67-0.23-1.06-0.73-1.25-1.39c-0.34-1.17,0.19-2.33,1.31-2.9
				c0.61-0.31,1.27-0.42,1.95-0.42c0.73,0,1.44,0.11,2.09,0.46c0.82,0.44,1.3,1.12,1.42,2.05c0.01,0.05,0.01,0.1,0.01,0.17
				c-0.68,0-1.36,0-2.04,0c-0.01-0.07-0.02-0.14-0.02-0.21c-0.05-0.44-0.3-0.71-0.72-0.82c-0.49-0.13-0.98-0.1-1.47,0.02
				c-0.23,0.06-0.42,0.2-0.51,0.43c-0.11,0.26-0.06,0.5,0.18,0.65c0.21,0.12,0.44,0.22,0.67,0.27c0.56,0.12,1.12,0.2,1.69,0.3
				c0.59,0.1,1.14,0.27,1.63,0.62c0.7,0.5,0.99,1.18,0.9,2.04c-0.12,1.15-0.76,1.87-1.83,2.22c-1.22,0.39-2.45,0.42-3.66-0.03
				c-0.95-0.35-1.6-1.02-1.83-2.03c-0.03-0.12-0.04-0.24-0.06-0.36C73.47,41.93,73.48,41.9,73.48,41.85z"/>
			<path class="st0" d="M51.67,36.18c0.69,0,1.37,0,2.06,0c0,2.74,0,5.48,0,8.23c-0.68,0-1.36,0-2.06,0
				C51.67,41.67,51.67,38.93,51.67,36.18z"/>
			<path class="st0" d="M79.55,35.5c-0.54,0-1.04-0.48-1.04-1.02c0-0.53,0.5-1.02,1.04-1.02c0.58,0,1.02,0.44,1.02,1.02
				C80.58,35.05,80.14,35.5,79.55,35.5z M79.55,35.36c0.48,0,0.82-0.38,0.81-0.89c0-0.5-0.35-0.87-0.82-0.87
				c-0.47,0-0.83,0.38-0.82,0.88C78.73,35,79.07,35.36,79.55,35.36z"/>
			<path class="st0" d="M79.35,34.59c0,0.15,0,0.29,0,0.44c-0.05,0-0.1,0-0.14,0c0-0.36,0-0.73,0-1.1c0.16,0,0.32-0.01,0.48,0
				c0.14,0.01,0.23,0.11,0.27,0.25c0.04,0.13,0,0.25-0.11,0.34c-0.02,0.02-0.05,0.03-0.08,0.06c0.06,0.14,0.13,0.29,0.19,0.44
				c-0.19,0.04-0.19,0.04-0.26-0.12c-0.02-0.06-0.06-0.11-0.07-0.17C79.59,34.59,79.5,34.54,79.35,34.59z M79.35,34.43
				c0.11,0,0.2,0,0.29,0c0.07,0,0.11-0.04,0.11-0.12c0.01-0.19-0.03-0.24-0.21-0.24c-0.06,0-0.13,0-0.19,0
				C79.35,34.2,79.35,34.31,79.35,34.43z"/>
		</g>
	</g>
</g>
</svg>
