<?xml version="1.0" encoding="utf-8"?>
<!-- Generator: Adobe Illustrator 24.1.0, SVG Export Plug-In . SVG Version: 6.00 Build 0)  -->
<svg version="1.1" id="Layer_1" xmlns="http://www.w3.org/2000/svg" xmlns:xlink="http://www.w3.org/1999/xlink" x="0px" y="0px"
	 viewBox="0 0 113.39 56.69" style="enable-background:new 0 0 113.39 56.69;" xml:space="preserve">
<style type="text/css">
	.st0{fill:#020203;}
</style>
<g id="GKfb69.tif">
	<g>
		<g>
			<path class="st0" d="M37.19,37.23c-0.41-0.06-0.82-0.09-1.22-0.17c-1.81-0.37-3.15-1.35-3.89-3.07
				c-0.38-0.88-0.44-1.81-0.34-2.75c0.23-2.2,1.15-4.14,2.34-5.97c1.15-1.77,2.52-3.36,3.93-4.92c0.27-0.3,0.55-0.6,0.85-0.88
				c-0.05,0.09-0.09,0.17-0.14,0.26c-0.72,1.27-1.29,2.6-1.55,4.05c-0.21,1.15-0.22,2.29,0.28,3.37c0.64,1.38,1.74,2.18,3.23,2.46
				c1.43,0.27,2.86,0.14,4.26-0.2c1.96-0.47,3.9-1.01,5.85-1.52c4.3-1.14,8.6-2.28,12.89-3.43c4.5-1.2,9.01-2.39,13.51-3.59
				c1.45-0.39,2.9-0.77,4.35-1.16c0.04-0.01,0.08-0.02,0.14,0.01c-0.08,0.04-0.16,0.07-0.25,0.11c-7.72,3.3-15.44,6.61-23.16,9.91
				c-4.55,1.95-9.11,3.9-13.67,5.83c-1.59,0.67-3.23,1.18-4.94,1.46c-0.45,0.07-0.9,0.11-1.36,0.16c-0.09,0.01-0.18,0.03-0.27,0.04
				C37.76,37.23,37.47,37.23,37.19,37.23z"/>
		</g>
	</g>
</g>
</svg>
